<svg id="Layer_1" data-name="Layer 1" xmlns="http://www.w3.org/2000/svg" viewBox="0 0 457.16 177.83"><defs><style>.cls-1{fill:#233d7b;}.cls-1,.cls-2{fill-rule:evenodd;}.cls-2{fill:#fff;}</style></defs><path class="cls-1" d="M0,70.7A28.36,28.36,0,0,1,8.89,49.59a29.94,29.94,0,0,1,21.69-8.65q16.83,0,24.8,14.08L44.53,63.44q-5.76-8.31-13.72-8.31A14.21,14.21,0,0,0,20,59.57,15.52,15.52,0,0,0,15.81,70.7,15.68,15.68,0,0,0,20,82a14.21,14.21,0,0,0,10.79,4.44q8,0,13.72-8.19l10.85,8.31A27.75,27.75,0,0,1,45.17,97a28.33,28.33,0,0,1-14.59,3.75A29.09,29.09,0,0,1,8.89,92,28,28,0,0,1,0,70.7Zm107-5.3V99.31H92.73V93.78Q86,100.7,75.31,100.7q-9,0-14.36-4.73a15.66,15.66,0,0,1-5.36-12.34,14.49,14.49,0,0,1,5.82-12.18Q67.25,67,77.16,67h14.3V64.48c0-3.23-.9-5.72-2.71-7.45s-4.44-2.59-7.9-2.59a16.16,16.16,0,0,0-7.73,1.84,30.14,30.14,0,0,0-7.38,6l-8.08-9.57q9.93-11.77,24.92-11.77,11.31,0,17.88,6.4T107,65.4ZM91.46,78v-.69H79.24q-8,0-8,5.77a5.41,5.41,0,0,0,2.24,4.56,9.78,9.78,0,0,0,6,1.67,12.12,12.12,0,0,0,8.59-3.17A10.63,10.63,0,0,0,91.46,78Zm57.89-35.76V55.94H145.2q-7.15,0-11.25,3.81t-4.09,11.07V99.31H114.28V42.21h14.31V49a19.14,19.14,0,0,1,15.69-7.5,16.89,16.89,0,0,1,5.07.69ZM202.63,76a37.08,37.08,0,0,0,1-8.54,25.79,25.79,0,0,0-7.55-18.91q-7.56-7.62-19.33-7.62a28.19,28.19,0,0,0-21.22,8.65,28.17,28.17,0,0,0-8.65,21.23,27.64,27.64,0,0,0,8.94,21.28,30.16,30.16,0,0,0,22.32,8.6A34.86,34.86,0,0,0,201,92.16l-6.46-10.61a25.72,25.72,0,0,1-15.92,5.77,17.81,17.81,0,0,1-10.44-2.94A14,14,0,0,1,162.6,76Zm-40-11a15.22,15.22,0,0,1,5-8.42,13,13,0,0,1,8.65-3.11,12.51,12.51,0,0,1,8.71,3.17,11.09,11.09,0,0,1,3.63,8.36Zm93.3.35V99.31H241.59V93.78q-6.69,6.91-17.42,6.92-9,0-14.36-4.73a15.69,15.69,0,0,1-5.36-12.34,14.49,14.49,0,0,1,5.82-12.18Q216.11,67,226,67h14.31V64.48c0-3.23-.91-5.72-2.72-7.45s-4.44-2.59-7.9-2.59A16.19,16.19,0,0,0,222,56.28a30.32,30.32,0,0,0-7.38,6l-8.08-9.57q9.93-11.77,24.92-11.77,11.31,0,17.88,6.4T255.9,65.4ZM240.33,78v-.69H228.1q-8,0-8,5.77a5.39,5.39,0,0,0,2.25,4.56,9.75,9.75,0,0,0,5.94,1.67,12.12,12.12,0,0,0,8.59-3.17A10.64,10.64,0,0,0,240.33,78Z"/><path class="cls-1" d="M413.18,172.7c-2.86.85-6.21.75-7.9-2,.59-.33,2.32-.51,3.25-.82,6.39-2.14,14.24-9.17,17.88-14.86.57-.88,1.23-2.54,1.61-3,2.93,1.68,1.56,5.94.46,8-2.49,4.6-10.3,11.24-15.3,12.74Zm-10.46-22.54c-.55,1.34.44,1.82,1.57,3,1,1,2,2,2.91,3,1.7,1.87,4.05,5.78,5.24,3.35.51-1-.56-1.94-1.39-2.94s-1.78-2.09-2.72-3.08c-1.08-1.15-4.63-5.73-5.61-3.33Zm13-12c-.56,1,.2,1.93,1.08,3.68a40.67,40.67,0,0,1,2.9,7.38c.85,2.95,2.35,1.92,2.74,1.15.67-1.32-3.85-12-5.05-12.7a1.19,1.19,0,0,0-1.67.49Zm-9.4,2.05c-.12.39-.28.38,0,1l2.4,3.28c2.34,3.15,3.77,5.16,5.84,8.5a8,8,0,0,0,1.46,2.12,1.28,1.28,0,0,0,1.91-.62c.5-1.27-3.87-7.15-4.82-8.49s-2.07-2.82-3.13-4.26a13.87,13.87,0,0,0-1.76-2.22,1.21,1.21,0,0,0-1.94.68Zm-140.93-104v60c0,17.91,13.61,32.67,31.12,33.76,27.69,1.71,47,2.54,66.48,2.49,6.25,5.27,14,10.82,19.13,20.59-1.89.77-20.8.72-19.21,16.45a23.56,23.56,0,0,0,.94,4.47c2.52,7.24,12.15,2.55,16.83-.37a41,41,0,0,1,4.37-2.76c1.84-.6,8.62-.29,10.95-.12a35,35,0,0,0,6.47,0c1.1,2.3,1.77,3.63,4.42,4.53a11.65,11.65,0,0,0,5.41.29c6.37-1,17.26-9.9,19.32-16.29.86-2.69,1.42-5.85-.42-8.1-1-1.24-1.7-1.22-2.65-1.94a19.43,19.43,0,0,1,.17-2.28,34.18,34.18,0,0,0-2.5-15.8c-.15-.38-.32-.77-.49-1.17l.31,0c17.51-1.08,31.12-15.84,31.12-33.75v-60c0-17.91-13.62-32.68-31.14-33.75-53.83-3.3-75.88-3.4-129.53,0h0c-17.5,1.1-31.1,15.86-31.1,33.76Zm101.69,96.22c6.79,5.67,13.76,11.52,17.51,19.69.47,1,1.5,2.59.07,3.35-1.92,1-23.09-.55-18.52,16.85.79,3,2.7,3.4,5.86,2.46a32.33,32.33,0,0,0,7-3.26c2.94-1.74,3.89-3.18,7-3.55a43.92,43.92,0,0,1,7,0c3.81.35,10.4.51,14-.41,4.85-1.26,10.24-5.84,14.07-10,3.63-3.95,4.7-5.86,5-10.38a23.59,23.59,0,0,0-.14-7,31.35,31.35,0,0,0-3-10C400.34,131.55,383.41,132.31,367.08,132.45Z"/><path class="cls-2" d="M285.66,104V17.6h15.56V104Zm23,0v-58H324.5v58Zm-2.22-79a9.35,9.35,0,0,1,2.93-7,9.93,9.93,0,0,1,7.14-2.81,10.14,10.14,0,0,1,7.2,2.81,9.26,9.26,0,0,1,3,7,9.1,9.1,0,0,1-3,6.9,10.1,10.1,0,0,1-7.2,2.81,9.89,9.89,0,0,1-7.14-2.81,9.19,9.19,0,0,1-2.93-6.9Zm78.11,43.66V104H369.14V70.71a11.07,11.07,0,0,0-2.93-8,10.16,10.16,0,0,0-7.67-3.06,10.51,10.51,0,0,0-7.77,3.06,10.79,10.79,0,0,0-3.06,8V104H332.16V47h14.29v5.19q6.45-6.47,16.7-6.46,9.92,0,15.67,6.23t5.76,16.7ZM448,104H430.3L407.37,72.44V104H391.82V17.6h15.55V71.29L427.88,47h18.43L424.88,72.21Z"/><path class="cls-2" d="M402.72,150.16c1-2.4,4.53,2.18,5.61,3.33.94,1,1.86,2,2.72,3.08s1.9,1.89,1.39,2.94c-1.19,2.43-3.54-1.48-5.24-3.35-.94-1-1.93-2-2.91-3-1.13-1.16-2.12-1.64-1.57-3Zm13-12a1.19,1.19,0,0,1,1.67-.49c1.2.7,5.72,11.38,5.05,12.7-.39.77-1.89,1.8-2.74-1.15a40.67,40.67,0,0,0-2.9-7.38c-.88-1.75-1.64-2.65-1.08-3.68Zm-9.4,2.05c-.12.39-.28.38,0,1l2.4,3.28c2.34,3.15,3.77,5.16,5.84,8.5a8,8,0,0,0,1.46,2.12,1.28,1.28,0,0,0,1.91-.62c.5-1.27-3.87-7.15-4.82-8.49s-2.07-2.82-3.13-4.26a13.87,13.87,0,0,0-1.76-2.22,1.21,1.21,0,0,0-1.94.68Zm-8.41-24.74,6.5,4.73c-7.3-.9-11-7.18-18.73-3.76a15.07,15.07,0,0,0-6.17,5,76.88,76.88,0,0,0,6,5.43c3.29,2.67,3.78,2.54,6,4.14-.37-.12-1.1-.19-1.58-.3a16.63,16.63,0,0,1-1.79-.48c-4.17-1.43-7.1-3.64-10.4-6.86a185.61,185.61,0,0,1-12.8-14.13c-4.82-5.78-9.46.6-9.56,6.1-.12,5.85,3.77,10.3,8,13.93,7.82,6.73,16.78,13.14,21.22,22.82.47,1,1.5,2.59.07,3.35-1.92,1-23.09-.55-18.52,16.85.79,3,2.7,3.4,5.86,2.46a32.33,32.33,0,0,0,7-3.26c2.94-1.74,3.89-3.18,7-3.55a43.92,43.92,0,0,1,7,0c3.81.35,10.4.51,14-.41,4.85-1.26,10.24-5.84,14.07-10,3.63-3.95,4.7-5.86,5-10.38a23.59,23.59,0,0,0-.14-7,31.84,31.84,0,0,0-3.27-10.51c-2.18-4.57-6.19-10.49-10.72-13.39C407.22,113.29,402.51,112,397.91,115.5Z"/><path class="cls-2" d="M428,152c-.38.47-1,2.13-1.61,3-3.64,5.69-11.49,12.72-17.88,14.86-.93.31-2.66.49-3.25.82,1.69,2.77,5,2.87,7.9,2,5-1.5,12.81-8.14,15.3-12.74C429.58,157.93,431,153.67,428,152Z"/></svg>